<svg version="1.1" id="Layer_1" xmlns="http://www.w3.org/2000/svg" xmlns:xlink="http://www.w3.org/1999/xlink" x="0px" y="0px"
	 width="100%" viewBox="0 0 945 188" enable-background="new 0 0 945 188" xml:space="preserve">
<path fill="#161515" opacity="1.000000" stroke="none" 
	d="
M638.000000,189.000000 
	C426.879791,189.000000 216.259598,188.982285 5.639502,189.124817 
	C1.351690,189.127716 0.892808,187.968216 0.901808,184.141281 
	C1.042096,124.488106 1.048351,64.834373 0.886318,5.181309 
	C0.876010,1.386546 1.896677,0.917997 5.317148,0.918953 
	C317.414917,1.006248 629.512756,1.004616 941.610535,0.936509 
	C944.834106,0.935806 946.140503,1.111028 946.128174,5.109056 
	C945.943176,65.095253 945.958069,125.082291 946.105164,185.068695 
	C946.113892,188.631973 945.208679,189.088608 941.932739,189.085220 
	C840.788513,188.980988 739.644287,189.000000 638.000000,189.000000 
z"/>
<path fill="#5E1BE4" opacity="1.000000" stroke="none" 
	d="
M92.268738,77.121902 
	C91.622520,77.165268 91.169220,77.445580 90.479248,77.865593 
	C87.966805,78.724762 85.718124,79.514526 83.298706,80.806610 
	C83.023064,81.036865 83.001221,81.000305 83.010529,81.018219 
	C81.606628,81.773682 79.951118,81.805862 78.273956,82.774261 
	C78.000107,82.976288 77.998444,83.004852 77.987122,82.995956 
	C75.187454,83.845284 72.264664,84.267410 69.309105,85.775505 
	C69.006302,85.985519 69.000938,86.005806 68.991272,86.001587 
	C66.273346,86.998711 63.292339,86.519218 60.233807,87.713303 
	C59.879326,87.883247 59.527981,87.996292 59.343559,87.989708 
	C58.633224,88.375862 58.043259,88.544411 56.915932,88.491211 
	C49.837345,89.098328 43.234795,88.686050 36.218872,88.207565 
	C23.382702,85.914841 14.672344,78.985413 9.179892,67.400772 
	C8.263138,66.380257 8.616218,65.371162 8.203250,64.239548 
	C7.993160,63.967358 8.030865,63.986706 8.025288,64.007149 
	C5.848743,56.891083 6.095237,49.705383 7.795609,42.090286 
	C12.864605,26.786121 22.669266,16.229040 37.015350,10.356594 
	C55.323677,2.862238 71.417702,13.295593 73.953484,33.769768 
	C74.014450,34.262070 74.003128,34.763325 74.120972,35.673347 
	C74.784683,38.734051 74.392433,41.410786 74.327698,44.500214 
	C74.071556,46.306587 73.945061,47.686470 73.842850,49.482185 
	C73.236290,50.968193 73.615112,52.162735 73.306351,53.606327 
	C73.081070,54.103176 72.998734,54.283886 72.914299,54.762466 
	C72.285408,55.760548 72.598068,56.665249 72.180008,57.691017 
	C71.969429,57.925308 71.906532,57.945690 71.906136,57.978745 
	C70.318108,60.243206 68.055527,61.569702 65.554543,60.401817 
	C62.961571,59.190979 63.808945,56.428864 64.014160,54.149445 
	C64.656944,47.009537 64.934174,39.906597 62.401337,33.001419 
	C58.482910,22.318773 50.098850,19.704218 40.769775,26.148706 
	C37.011620,28.744825 34.103756,32.090206 31.125473,35.914642 
	C30.453312,36.714573 29.983549,37.216286 29.416595,38.054031 
	C29.142328,38.518192 29.031370,38.701382 28.746614,39.150780 
	C27.668560,40.356483 27.319351,41.521774 27.137424,43.098255 
	C27.007666,43.625065 26.944304,43.835758 26.754837,44.356739 
	C24.822666,47.894188 24.988052,51.204967 26.418221,54.837032 
	C26.757269,55.306118 26.887178,55.498692 27.207329,55.984100 
	C27.653418,56.672455 27.912052,57.066151 28.392040,57.746609 
	C32.792953,64.136421 39.101536,65.030037 45.735878,64.851028 
	C53.895111,64.630890 61.700809,62.477943 69.444786,60.100861 
	C70.708771,59.712872 71.956108,59.275871 73.636490,59.273739 
	C83.442291,55.422523 92.922646,51.753864 102.753281,47.916252 
	C103.539322,47.595509 103.986420,47.493351 104.752876,47.285477 
	C106.758347,47.096756 108.455811,47.063423 110.572922,46.962532 
	C116.952271,44.849148 123.048172,44.658306 129.648773,45.741791 
	C130.522186,45.951817 130.970840,45.976376 131.738464,45.888557 
	C132.458847,45.593204 132.878754,45.510181 133.625504,45.657261 
	C146.673325,48.664764 155.719513,55.798180 160.124329,68.795540 
	C160.419739,69.579292 160.509827,70.026962 160.716217,70.789452 
	C160.935806,71.851036 161.003967,72.604881 161.177734,73.723312 
	C161.345139,74.377197 161.406937,74.666489 161.480103,75.399391 
	C161.467102,79.689560 161.555740,83.536613 161.245972,87.781509 
	C159.065842,102.977341 154.662537,116.904305 146.046478,129.674652 
	C145.525681,130.452118 145.506653,131.039001 145.204590,131.828156 
	C145.063614,132.076050 145.023621,132.006104 145.061340,132.020233 
	C144.577652,132.396027 144.507294,132.979492 144.183258,133.750183 
	C144.001678,133.972839 144.011658,134.002563 143.996323,134.005844 
	C143.165497,134.724548 142.768005,135.702347 142.158813,136.918610 
	C141.994400,137.186783 141.890381,137.522385 141.790421,137.666840 
	C141.630997,138.033463 141.571548,138.255630 141.242584,138.693115 
	C140.973083,138.908463 140.989319,138.976486 140.955322,138.984680 
	C140.775162,139.166168 140.629013,139.339447 140.254181,139.764374 
	C140.025497,140.016022 140.001221,140.000610 140.010376,140.011383 
	C139.576904,140.413467 139.505844,140.970932 139.146896,141.669235 
	C138.933105,141.843216 138.928024,141.933655 138.889008,141.956635 
	C138.726639,142.158310 138.603302,142.336990 138.232986,142.727951 
	C137.985992,142.940231 138.002762,142.998062 137.972748,142.995789 
	C137.790894,143.165009 137.639069,143.336517 137.264465,143.769577 
	C137.041672,144.031128 137.001816,144.023071 137.020370,144.035492 
	C135.898499,144.994705 134.940323,146.081528 134.202881,147.733337 
	C134.009338,147.979996 134.012024,148.009064 133.997818,148.012421 
	C133.819794,148.178116 133.655975,148.340439 133.268585,148.766708 
	C133.045013,149.030670 133.002213,149.022751 133.019150,149.037445 
	C131.909912,149.984894 130.963837,151.059540 130.140869,152.615555 
	C129.899643,152.809921 129.888611,152.912003 129.841156,152.931595 
	C129.692215,153.136398 129.590714,153.321594 129.226028,153.683044 
	C128.962830,153.859329 128.949234,153.945465 128.907501,153.958099 
	C128.739441,154.150101 128.613098,154.329453 128.245270,154.732361 
	C128.003754,154.955902 128.015167,155.007477 127.988823,155.009338 
	C127.805183,155.175598 127.647881,155.339996 127.262939,155.758698 
	C127.035294,156.012970 127.010727,156.010269 127.012115,156.022552 
	C126.841408,156.189102 126.669319,156.343369 126.266113,156.756058 
	C126.034996,157.014465 126.009476,157.009277 126.012009,157.022049 
	C125.841965,157.189240 125.669388,157.343658 125.267921,157.759415 
	C125.039040,158.020737 125.007507,158.008102 125.014740,158.023499 
	C124.847183,158.191849 124.672379,158.344788 124.267632,158.759430 
	C124.037682,159.021149 124.006676,159.006973 124.013947,159.022400 
	C123.847603,159.190048 123.673988,159.342270 123.263916,159.747589 
	C123.027466,160.000687 123.012718,160.014008 123.005081,160.020355 
	C122.832100,160.182281 122.666771,160.337860 122.251343,160.724594 
	C122.001259,160.955734 122.005302,161.008301 121.979530,161.002731 
	C121.804100,161.161575 121.654442,161.326004 121.243881,161.698151 
	C120.982971,161.905869 120.975365,161.974792 120.942078,161.965103 
	C119.796463,162.875702 118.350471,163.355728 117.255585,164.804352 
	C117.050934,165.039642 117.022789,165.000488 117.028503,165.022095 
	C116.858437,165.191910 116.682655,165.340103 116.251099,165.719620 
	C115.995316,165.950943 115.999077,166.005936 115.973152,165.996582 
	C115.802071,166.152786 115.656914,166.318344 115.239334,166.670654 
	C114.966927,166.857391 114.941681,166.934402 114.901245,166.931702 
	C114.539925,167.477631 113.934158,167.473389 113.229950,167.860596 
	C113.029922,168.054886 112.998657,168.002869 113.023178,168.020645 
	C112.788872,168.214417 112.554047,168.418076 112.174881,168.811325 
	C112.006523,168.973221 112.004318,169.008469 111.987762,169.002319 
	C111.234749,169.694778 110.171707,169.861328 109.212563,170.758667 
	C108.993080,170.962601 109.001564,171.007126 108.979874,171.000549 
	C108.766975,171.255508 108.535660,171.474701 108.031525,171.710297 
	C107.798828,171.769058 107.532928,171.937744 107.380043,171.975372 
	C106.321342,172.549805 105.285286,172.848236 104.219582,173.736176 
	C103.982208,173.945557 103.992523,174.002594 103.969208,173.985382 
	C102.127571,174.890106 100.001930,175.132050 98.077805,176.651871 
	C97.777420,176.819214 97.509178,176.956085 97.360764,176.981476 
	C95.393578,177.743881 93.477890,178.132065 91.296997,178.810989 
	C91.017220,179.049271 90.998238,179.001129 91.014526,179.020996 
	C85.339996,180.482147 79.605759,180.045654 73.428581,179.239655 
	C72.989609,179.041672 72.976349,179.014969 72.967407,179.027145 
	C71.411385,177.633743 69.314781,177.362564 67.262077,176.231750 
	C66.979248,176.046570 66.985909,176.006973 66.971191,176.020935 
	C66.332359,175.202057 65.403679,174.817825 64.309341,174.158356 
	C64.104904,173.940231 64.036217,173.957809 64.035278,173.922363 
	C63.856510,173.756561 63.678684,173.626190 63.304882,173.229416 
	C63.108906,172.962997 63.036530,172.963043 63.036522,172.926849 
	C62.858376,172.759476 62.680229,172.628281 62.303997,172.230820 
	C62.105911,171.964569 62.034084,171.972229 62.045723,171.938049 
	C61.271896,171.237488 61.138084,170.137405 60.189461,169.230728 
	C59.967003,169.029877 59.999847,169.002319 59.983208,169.013687 
	C58.367313,165.578522 56.383690,162.299011 55.195534,158.300217 
	C54.965782,158.026413 54.994965,158.012329 54.980221,158.010498 
	C54.127468,155.905930 54.615982,153.524033 53.401649,151.133408 
	C53.155052,150.425232 53.094425,150.045013 52.987793,149.379608 
	C53.425865,148.431122 54.113007,148.224197 55.254429,148.296265 
	C59.356892,150.271851 58.186501,154.804901 60.726898,157.742844 
	C60.962990,158.006592 61.005859,158.002045 60.994484,158.020386 
	C62.808762,164.697235 66.752510,169.403793 73.754341,171.764099 
	C74.493622,172.010849 74.931549,172.063339 75.696053,172.169357 
	C77.506531,172.738586 79.024200,172.475647 80.823273,172.270538 
	C81.495293,172.050430 81.876999,171.978210 82.547989,171.865204 
	C84.907867,172.120316 86.633598,171.034256 88.735016,170.216309 
	C88.993660,170.015411 88.998581,169.994080 89.008743,169.998276 
	C90.071304,169.229675 91.553795,169.454300 92.769463,168.280319 
	C93.014847,168.069595 93.013832,168.003693 93.042603,168.019775 
	C94.080750,167.192169 95.599434,167.459656 96.758858,166.218094 
	C96.985229,165.986725 96.999084,166.000000 96.994400,165.993042 
	C97.235245,165.750092 97.492088,165.527222 97.999329,165.225540 
	C98.236687,165.131653 98.393883,164.981293 98.501740,164.967270 
	C98.979340,164.839355 99.312721,164.659729 99.789452,164.184082 
	C99.975159,163.964645 99.994896,164.001923 99.980392,163.984863 
	C100.140244,163.817093 100.314590,163.666397 100.746719,163.285431 
	C101.004517,163.055161 101.004311,162.995071 101.032677,163.004990 
	C101.244019,162.734436 101.477333,162.505203 101.997879,162.258087 
	C102.234764,162.188965 102.393715,162.018707 102.506927,161.991425 
	C102.986801,161.841919 103.315628,161.653625 103.785164,161.174225 
	C103.963730,160.949219 103.986008,161.005585 103.966782,160.981079 
	C104.215393,160.783218 104.454346,160.576462 104.812698,160.150711 
	C104.960976,159.965088 104.998573,159.999390 104.982788,159.979706 
	C105.221695,159.777802 105.454262,159.570740 105.820984,159.164825 
	C105.977280,158.990814 105.995628,158.995834 105.994156,158.986542 
	C106.160637,158.821075 106.328598,158.664871 106.744995,158.270630 
	C106.993431,158.032593 106.993042,157.988464 107.014587,157.993195 
	C107.186943,157.837158 107.337746,157.676392 107.761047,157.328354 
	C108.033539,157.141083 108.063507,157.058304 108.106697,157.049789 
	C108.266243,156.862625 108.382607,156.683975 108.772507,156.339600 
	C109.046043,156.173889 109.078888,156.078400 109.126534,156.061676 
	C109.285660,155.861801 109.397148,155.678635 109.770073,155.308121 
	C110.031502,155.120773 110.038277,155.044296 110.075241,155.033936 
	C110.245697,154.846313 110.379196,154.669067 110.753983,154.262543 
	C110.995277,154.033264 110.987762,153.991714 111.008873,153.991608 
	C111.188423,153.827621 111.346870,153.663742 111.745232,153.256256 
	C111.985146,153.012634 111.990257,152.990219 112.001442,152.987579 
	C112.176170,152.823990 112.339714,152.663040 112.741043,152.253220 
	C112.978828,152.004364 112.989655,151.990128 112.996292,151.984116 
	C113.171120,151.817871 113.339302,151.657623 113.736313,151.234619 
	C113.965141,150.971832 113.999695,150.999390 113.984421,150.983276 
	C114.224731,150.777908 114.458481,150.564713 114.808090,150.133957 
	C114.945786,149.940338 114.996674,150.000153 114.964508,149.977493 
	C115.423225,149.594086 115.492737,149.028305 115.854218,148.322449 
	C116.068367,148.144516 116.071289,148.062347 116.108559,148.044998 
	C116.269096,147.848022 116.392372,147.668396 116.761719,147.273712 
	C117.007790,147.058685 116.992950,147.000122 117.023163,146.999756 
	C117.207520,146.829239 117.361664,146.659103 117.743614,146.230667 
	C117.971413,145.972382 118.000305,145.998169 117.985672,145.987686 
	C118.259575,145.747787 118.511948,145.483414 118.848389,144.938782 
	C118.963852,144.688858 119.040092,144.415314 119.131348,144.306519 
	C119.247643,143.861511 119.387703,143.583160 119.825722,143.209412 
	C120.008667,143.056183 119.992271,142.999878 120.021591,142.999329 
	C120.205742,142.828918 120.360573,142.659027 120.735031,142.223389 
	C120.954659,141.957642 120.988716,141.986832 120.969025,141.968781 
	C121.864998,141.274857 122.252357,140.252563 122.835747,138.976257 
	C122.966354,138.679337 123.010750,138.427216 123.091888,138.328217 
	C123.225563,137.885483 123.380898,137.597137 123.822205,137.194794 
	C124.005394,137.025406 123.995743,136.998825 124.009430,137.002121 
	C124.797752,136.313675 125.195183,135.385025 125.778244,134.216446 
	C125.941292,133.962341 125.997307,133.993027 125.970436,133.980515 
	C126.439362,133.586411 126.493172,133.000793 126.811615,132.229462 
	C126.982796,132.000626 126.996338,131.997543 126.993835,131.990967 
	C127.444252,131.574997 127.494194,130.993729 127.815979,130.229370 
	C127.988243,130.003799 127.996521,129.997787 127.997398,129.992706 
	C129.040833,129.074310 129.435928,127.858490 129.812149,126.284409 
	C130.014954,126.029701 129.994339,126.000015 130.012390,125.999428 
	C130.445099,125.567734 130.495132,124.991852 130.814575,124.230743 
	C130.985718,124.006500 130.993896,123.996857 130.994644,123.990524 
	C131.447113,123.572426 131.494476,122.990616 131.798706,122.214401 
	C131.956970,121.978516 131.998169,122.000610 131.979370,121.988647 
	C132.756561,121.318794 132.392593,120.354645 132.806366,119.284576 
	C133.009415,119.026932 132.992386,118.998688 133.008621,118.995865 
	C133.506348,118.525803 133.493835,117.864052 133.841522,117.010666 
	C133.986465,116.734253 134.012497,116.468002 134.079620,116.352295 
	C135.136658,114.844948 135.609726,113.292496 135.814453,111.310226 
	C136.035812,111.032761 135.998001,111.003891 136.020508,111.010483 
	C139.687119,100.868050 142.054688,90.507652 140.976227,79.628830 
	C140.679977,76.640434 139.699036,73.846947 137.256165,71.324799 
	C136.962875,71.047775 136.998444,71.004097 136.976196,71.020996 
	C131.969131,66.650253 125.927956,67.041603 120.061630,67.769012 
	C114.357040,68.476372 108.762825,70.004608 103.117744,72.580208 
	C102.773071,72.781021 102.435425,72.893333 102.259361,72.918945 
	C100.014153,74.090225 97.453293,73.979225 95.275253,75.752045 
	C95.016739,75.996826 95.004631,76.010323 94.995590,76.011055 
	C94.566414,76.429871 94.002266,76.481796 93.233841,76.758301 
	C92.999916,76.907494 92.953308,76.962738 92.922546,76.943756 
	C92.748405,77.069473 92.605026,77.214157 92.268738,77.121902 
z"/>
<path fill="#F9F9F9" opacity="1.000000" stroke="none" 
	d="
M519.169312,42.121147 
	C519.893250,38.612244 520.487976,35.508678 521.200500,32.432396 
	C521.713074,30.219307 523.024231,28.068560 518.990295,27.606607 
	C516.497620,27.321154 517.587646,24.646576 517.456116,22.965714 
	C517.264282,20.513670 519.159729,21.015760 520.560913,21.003658 
	C524.725769,20.967676 528.891968,20.941088 533.055664,21.020123 
	C534.345459,21.044609 536.435669,20.264133 536.158020,22.840969 
	C535.970032,24.585762 537.422607,27.355322 534.291565,27.659369 
	C531.318542,27.948067 531.554382,30.172182 531.144897,31.921192 
	C528.227234,44.382462 525.280151,56.840031 522.652954,69.363907 
	C521.983459,72.555412 520.563477,73.332977 517.657837,73.047882 
	C514.867493,72.774078 511.992676,73.885872 510.968079,69.399269 
	C508.722321,59.565304 505.786896,49.888836 502.244965,40.159290 
	C499.561554,49.804878 496.486084,59.365131 494.360138,69.132050 
	C493.297028,74.016304 490.286469,72.693375 487.361023,73.060722 
	C484.038971,73.477875 483.299011,71.885376 482.667267,68.964897 
	C479.962036,56.458595 476.922241,44.024796 474.029602,31.558723 
	C473.619354,29.790749 473.610229,28.000864 471.045288,27.690634 
	C467.534210,27.265968 469.143158,24.329546 469.091797,22.505726 
	C469.022736,20.052853 471.242950,21.098408 472.469635,21.042625 
	C475.794891,20.891411 479.159821,20.731674 482.452606,21.091400 
	C484.308319,21.294132 487.365723,19.074465 487.926178,23.068558 
	C488.405121,26.481693 487.403351,28.698420 483.151428,27.989153 
	C485.119049,37.295284 486.963470,46.018654 488.807861,54.742020 
	C489.087128,54.726086 489.366394,54.710152 489.645660,54.694218 
	C492.397095,44.682446 495.259949,34.699097 497.826172,24.640072 
	C498.518677,21.925621 499.471375,20.816341 502.439117,20.879543 
	C505.340088,20.941322 506.763794,21.499302 507.528961,24.668604 
	C509.750244,33.868870 512.457214,42.951843 514.971741,52.081360 
	C515.225769,53.003525 515.105835,54.143757 516.645142,54.537029 
	C517.463318,50.522430 518.276978,46.530296 519.169312,42.121147 
z"/>
<path fill="#F8F8F8" opacity="1.000000" stroke="none" 
	d="
M919.491760,127.482483 
	C922.209534,132.054535 924.712769,136.328445 927.216003,140.602356 
	C927.540222,140.579926 927.864502,140.557510 928.188721,140.535095 
	C928.188721,132.551575 928.172913,124.568008 928.202515,116.584610 
	C928.208130,115.076538 927.294861,114.359535 926.075195,114.339996 
	C921.589539,114.268158 922.815674,110.959038 922.966675,108.629066 
	C923.166199,105.549347 925.793945,107.137230 927.256775,107.068443 
	C931.907837,106.849762 936.575745,107.009087 941.236877,106.975899 
	C942.819641,106.964638 944.501343,106.900017 943.977417,109.188179 
	C943.596924,110.850357 945.516052,113.678253 942.234619,113.977264 
	C938.704651,114.298920 938.546631,116.332565 938.570557,119.106720 
	C938.669617,130.592651 938.695740,142.081177 938.525146,153.565430 
	C938.498535,155.358093 940.181030,158.758331 936.918396,158.793411 
	C933.545471,158.829651 929.405518,161.157272 926.703308,156.432327 
	C920.859802,146.214569 914.682373,136.187805 908.644958,126.088760 
	C906.753906,126.545135 907.465271,127.978653 907.453796,128.938217 
	C907.380066,135.096924 907.494812,141.258423 907.379517,147.415848 
	C907.328552,150.140854 907.421326,152.204681 911.009827,152.490936 
	C914.080688,152.735901 912.755676,155.500488 912.937805,157.265930 
	C913.163940,159.458160 911.422668,158.987122 910.206909,158.996017 
	C905.046448,159.033844 899.885559,159.020477 894.724792,159.006897 
	C893.289307,159.003128 891.484985,159.418808 891.802246,156.946487 
	C892.013611,155.299561 890.859802,152.685486 893.587646,152.524689 
	C897.324646,152.304398 897.130432,150.083603 897.112610,147.470093 
	C897.046875,137.814987 897.029602,128.158585 897.126038,118.503983 
	C897.150330,116.069565 896.921326,114.315712 893.926941,114.069519 
	C890.255371,113.767670 892.171997,110.808296 891.841797,109.010536 
	C891.383911,106.517982 893.375854,107.068344 894.773438,106.990456 
	C895.105408,106.971962 895.449463,107.041046 895.770752,106.979668 
	C904.392578,105.332375 910.136047,108.447540 913.334717,116.825661 
	C914.737244,120.499321 917.262085,123.744553 919.491760,127.482483 
z"/>
<path fill="#FCFCFC" opacity="1.000000" stroke="none" 
	d="
M476.294922,159.004944 
	C472.960693,159.550262 471.404327,158.175003 469.989502,155.701935 
	C464.958801,146.908325 459.703796,138.242279 454.467499,129.567886 
	C453.658081,128.227036 453.248199,126.522545 451.124939,125.445656 
	C451.124939,133.677444 451.178864,141.574478 451.087280,149.469818 
	C451.064178,151.461716 451.950134,152.100433 453.711639,152.182739 
	C456.722778,152.323441 456.814148,154.326080 456.819733,156.707031 
	C456.827301,159.929123 454.557404,158.937180 452.979675,158.970139 
	C448.320862,159.067459 443.657684,159.058105 438.998383,158.973404 
	C437.549377,158.947052 435.434418,159.819366 435.419891,156.964249 
	C435.408722,154.767090 435.050720,152.335068 438.240326,152.245850 
	C440.848999,152.172882 440.998108,150.715240 440.984406,148.661835 
	C440.915497,138.341797 440.909393,128.020691 440.991089,117.700851 
	C441.006470,115.753227 440.620941,114.320885 438.479126,114.264755 
	C434.324341,114.155853 435.431366,111.109802 435.491302,108.865608 
	C435.576447,105.677429 438.171478,107.315338 439.682129,107.021950 
	C448.062958,105.394348 453.379791,108.421364 457.064667,116.498581 
	C460.938019,124.988930 466.362305,132.771713 472.025024,140.660202 
	C472.025024,132.776978 471.986664,124.893417 472.056091,117.010796 
	C472.070709,115.351768 471.406799,114.350754 469.867676,114.341484 
	C465.886292,114.317513 466.607727,111.514153 466.637390,109.129158 
	C466.682190,105.522224 469.484497,107.141449 471.063812,107.070099 
	C475.715210,106.859978 480.382263,107.011131 485.043030,106.987007 
	C486.629608,106.978798 488.267883,106.944481 487.832886,109.235092 
	C487.511261,110.928566 489.196198,113.744476 485.939392,113.973579 
	C482.044281,114.247604 482.160553,116.635612 482.182953,119.484184 
	C482.272003,130.802734 482.002258,142.128662 482.327820,153.438553 
	C482.455872,157.886383 481.366028,159.905396 476.294922,159.004944 
z"/>
<path fill="#FCFCFC" opacity="1.000000" stroke="none" 
	d="
M415.501984,22.206860 
	C415.633636,25.445269 416.162964,28.341349 411.767792,28.501566 
	C409.325684,28.590590 410.056213,30.930140 410.051056,32.454895 
	C410.011688,44.108429 410.116058,55.763474 409.938995,67.414452 
	C409.911438,69.228882 411.620819,72.614845 408.586273,72.760529 
	C405.068756,72.929405 400.759796,75.081024 397.984253,70.135345 
	C392.619934,60.576721 386.826813,51.258739 381.207397,41.843422 
	C380.742981,41.065266 380.247833,40.305435 378.978729,38.277618 
	C378.978729,47.811798 379.024719,55.883980 378.945404,63.954929 
	C378.926331,65.894737 380.074524,66.091011 381.461151,66.168053 
	C384.634399,66.344353 384.389832,68.550415 384.406799,70.801346 
	C384.431458,74.065178 382.043427,72.923767 380.510223,72.961182 
	C375.685181,73.078896 370.855408,73.006096 366.027466,73.002899 
	C364.532898,73.001915 362.845093,73.252838 363.134460,70.845894 
	C363.334106,69.185211 362.300720,66.666626 365.055573,66.523628 
	C369.027100,66.317482 368.807098,63.874680 368.781738,61.070065 
	C368.695953,51.581425 368.691162,42.090935 368.788849,32.602528 
	C368.813812,30.180420 368.617523,28.248238 365.629242,28.132145 
	C361.957794,27.989511 363.407257,25.192492 363.147949,23.319586 
	C362.770050,20.590090 364.763916,21.058842 366.377075,20.990582 
	C378.659607,20.470882 378.659729,20.466480 384.832916,30.976063 
	C389.533752,38.979099 394.233704,46.982655 399.873444,54.854069 
	C399.873444,46.851398 399.833832,38.848377 399.903931,30.846319 
	C399.919556,29.059982 398.892181,28.339432 397.512390,28.320766 
	C393.553864,28.267220 394.161072,25.523466 394.250000,23.086283 
	C394.380035,19.522242 397.209778,21.043818 398.739899,21.092558 
	C404.309021,21.269962 409.947388,20.090179 415.501984,22.206860 
z"/>
<path fill="#FCFCFC" opacity="1.000000" stroke="none" 
	d="
M805.471313,28.901878 
	C804.971985,33.990288 803.160767,39.986073 805.788757,43.182011 
	C808.049866,45.931736 814.234192,43.756397 818.677124,43.983398 
	C820.171814,44.059769 821.685547,43.875164 823.169495,44.022327 
	C825.464233,44.249897 826.010254,43.184414 825.913879,41.105133 
	C825.775330,38.114414 825.769531,35.107174 825.914307,32.117027 
	C826.026001,29.810438 825.611450,28.139997 822.889709,28.072472 
	C819.330933,27.984184 820.440918,25.298481 820.232117,23.330053 
	C819.942932,20.602566 821.874023,21.002884 823.498718,20.999575 
	C828.493958,20.989401 833.489319,20.983448 838.484436,21.003826 
	C839.919189,21.009678 841.796204,20.610771 841.526672,23.022924 
	C841.316895,24.900171 842.792236,27.796621 839.209717,27.995329 
	C836.166382,28.164133 835.966919,29.936281 835.989990,32.374466 
	C836.084351,42.364082 836.050720,52.355190 836.011780,62.345543 
	C836.003723,64.416870 835.809204,66.302399 838.818787,66.380882 
	C842.025635,66.464508 841.638672,68.943375 841.561096,71.112434 
	C841.458313,73.985207 839.250427,72.926514 837.851135,72.959969 
	C833.025146,73.075333 828.194397,73.035011 823.366150,72.984253 
	C822.005188,72.969948 820.057251,73.539032 820.266602,71.050690 
	C820.403687,69.420662 819.261963,66.852753 822.091187,66.697334 
	C826.824402,66.437347 825.860596,63.161980 825.870239,60.345837 
	C825.898804,51.964211 825.882812,51.964161 817.667053,51.964130 
	C816.834534,51.964127 816.001953,51.964127 815.169434,51.964130 
	C804.572327,51.964134 804.636475,51.962463 804.918396,62.791454 
	C804.973694,64.914040 805.191406,66.272377 807.699280,66.365021 
	C811.037231,66.488342 810.377258,69.057846 810.358276,71.132004 
	C810.331665,74.047028 808.054932,72.920715 806.678467,72.956177 
	C801.852905,73.080452 797.021912,73.032478 792.193604,72.985893 
	C790.824829,72.972694 788.965271,73.521904 789.132751,71.006699 
	C789.256348,69.149719 788.371887,66.732918 791.462219,66.493706 
	C794.204224,66.281464 794.856201,64.892525 794.813843,62.258190 
	C794.653320,52.270264 794.714539,42.278004 794.776367,32.287880 
	C794.789856,30.108753 794.726807,28.181051 791.902649,28.097586 
	C787.976562,27.981556 789.287292,25.035299 789.168945,22.972078 
	C789.002625,20.071974 791.325378,21.076723 792.723633,21.037468 
	C796.883118,20.920696 801.065308,20.773535 805.202454,21.098879 
	C806.993530,21.239731 809.981506,19.059975 810.475525,23.390194 
	C810.925964,27.338409 808.915771,28.274479 805.471313,28.901878 
z"/>
<path fill="#181718" opacity="1.000000" stroke="none" 
	d="
M73.671356,59.026276 
	C63.120888,64.573776 51.767895,67.538589 39.510330,66.213394 
	C34.235680,65.643150 30.030518,63.421467 27.080177,58.493584 
	C26.727501,57.863789 26.533934,57.520573 26.157320,56.939754 
	C26.022903,56.674725 25.993162,56.415272 25.929123,56.301476 
	C24.122704,52.375797 23.929150,48.519905 25.692869,44.215897 
	C25.849543,43.818943 25.951550,43.497555 25.959457,43.329147 
	C26.770971,42.003658 26.601799,40.451706 27.674692,39.029900 
	C27.831257,38.719414 27.965269,38.502201 27.981339,38.375603 
	C28.394369,37.681385 28.484083,36.983376 29.084091,36.203468 
	C32.513020,31.064241 36.368500,26.809128 41.396614,23.674147 
	C50.501129,17.997562 58.486649,20.344797 63.090153,29.955526 
	C66.769142,37.636147 66.510277,45.755295 65.637451,53.830898 
	C64.902405,60.631664 64.579803,60.596798 71.562378,58.127129 
	C72.397415,58.328323 72.889099,58.644844 73.671356,59.026276 
z"/>
<path fill="#FBFBFB" opacity="1.000000" stroke="none" 
	d="
M341.944153,47.944794 
	C345.397461,52.877384 348.691406,57.478706 351.919556,62.125706 
	C353.442932,64.318665 354.794983,66.595879 357.917694,66.752388 
	C360.954437,66.904587 359.697906,69.307678 359.922516,70.888557 
	C360.270081,73.335098 358.490997,72.998421 357.028198,73.001785 
	C352.362915,73.012505 347.696442,73.062637 343.033112,72.965950 
	C341.882080,72.942093 340.040924,73.804428 339.773804,71.814621 
	C339.567657,70.279053 338.767853,67.858444 340.358368,67.237328 
	C343.503204,66.009247 341.417389,64.731529 340.723480,63.635197 
	C338.677917,60.403145 336.268982,57.388855 334.378265,54.074825 
	C332.817047,51.338352 330.428040,51.710068 328.298187,52.176640 
	C325.984375,52.683514 327.322601,54.958359 327.177704,56.422058 
	C326.965332,58.567059 327.201111,60.752380 327.099182,62.913601 
	C327.013550,64.729553 327.126343,66.283028 329.448273,66.372032 
	C332.688751,66.496231 332.396454,68.754562 332.341949,70.974182 
	C332.261230,74.262596 329.777466,72.891212 328.301147,72.945885 
	C323.808624,73.112267 319.305786,73.032516 314.807465,72.991631 
	C313.257965,72.977562 311.209961,73.577301 311.426239,70.770782 
	C311.558075,69.060013 310.761658,66.807823 313.627167,66.659851 
	C316.812164,66.495384 317.039429,64.593704 317.004364,61.970482 
	C316.872955,52.141792 316.920837,42.310120 316.976227,32.479988 
	C316.988129,30.368317 317.096893,28.314533 314.247650,28.213251 
	C310.363220,28.075172 311.538025,25.205614 311.463837,23.114279 
	C311.349701,19.898325 313.901825,21.086550 315.429535,21.042564 
	C320.090942,20.908360 324.758972,20.968258 329.423859,21.011824 
	C330.632538,21.023109 332.470490,20.495979 332.260803,22.645531 
	C332.085815,24.439184 333.548035,27.484739 331.023590,27.797693 
	C326.371765,28.374380 327.109436,31.336796 327.121582,34.258602 
	C327.129181,36.091362 327.010742,37.933674 327.164429,39.753498 
	C327.260071,40.886307 326.293396,42.665176 328.414490,42.933216 
	C330.034058,43.137882 331.641205,43.259769 332.764130,41.445038 
	C335.126648,37.627029 337.666656,33.918758 340.139099,30.168919 
	C340.816467,29.141567 341.402832,28.590639 339.546234,27.745735 
	C337.325043,26.734903 338.400391,24.147041 338.573090,22.328651 
	C338.792999,20.012655 340.948914,21.093029 342.224152,21.048391 
	C346.384491,20.902763 350.556091,20.902735 354.717102,21.038370 
	C356.395416,21.093077 359.040680,19.869839 358.868774,23.453728 
	C358.759003,25.742687 359.399567,28.297905 355.692810,28.224556 
	C354.356964,28.198122 353.130493,28.802317 352.271820,29.995499 
	C348.675079,34.993477 345.049713,39.970856 341.431335,44.953232 
	C340.704224,45.954407 341.024689,46.815399 341.944153,47.944794 
z"/>
<path fill="#FBFBFB" opacity="1.000000" stroke="none" 
	d="
M931.561401,22.076210 
	C943.996033,27.190199 945.730591,36.920883 936.024292,46.277649 
	C942.533875,48.987049 944.689026,54.127235 943.818970,60.688034 
	C942.969971,67.089989 939.020508,71.015457 931.348450,72.312714 
	C921.632568,73.955551 911.775330,72.672424 901.986572,73.003822 
	C900.400696,73.057510 899.988892,72.184555 900.134033,70.810593 
	C900.310181,69.143021 899.326477,66.642784 902.080383,66.511772 
	C906.083435,66.321327 905.797058,63.820560 905.775391,61.049694 
	C905.701355,51.571907 905.697937,42.092777 905.778442,32.615097 
	C905.801086,29.953279 905.910034,27.706518 902.209534,27.575588 
	C899.470459,27.478678 900.275757,25.066465 900.118958,23.355093 
	C899.966370,21.689642 900.567139,20.907375 902.322083,20.986452 
	C911.932190,21.419460 921.605469,20.027988 931.561401,22.076210 
z"/>
<path fill="#F7F7F7" opacity="1.000000" stroke="none" 
	d="
M635.075317,20.984453 
	C640.886047,20.987339 646.207520,20.898800 651.524658,21.011974 
	C662.899658,21.254089 671.014404,28.598997 672.300110,39.815601 
	C672.869202,44.780148 672.868469,49.772991 672.240112,54.738510 
	C670.914307,65.214638 663.051025,72.582222 652.492188,72.939598 
	C645.351990,73.181274 638.197510,73.031639 631.049805,72.990860 
	C629.741516,72.983398 627.739197,73.688950 627.993225,71.113243 
	C628.168396,69.336937 626.939758,66.651810 630.045227,66.420502 
	C633.396851,66.170853 633.391418,64.194595 633.369995,61.681484 
	C633.285217,51.708073 633.363281,41.733353 633.304260,31.759571 
	C633.295532,30.285509 634.097229,28.061583 631.432922,27.979689 
	C627.741333,27.866220 627.741516,25.463013 627.982666,22.848118 
	C628.309692,19.301369 631.072327,21.660089 632.605103,21.022560 
	C633.171997,20.786757 633.919128,20.984453 635.075317,20.984453 
z"/>
<path fill="#F8F8F8" opacity="1.000000" stroke="none" 
	d="
M371.006683,150.572723 
	C382.240784,152.900909 386.193665,149.667282 386.218323,138.609360 
	C386.233917,131.621307 386.185364,124.632904 386.243469,117.645309 
	C386.260406,115.607353 386.058075,114.022247 383.459778,113.966919 
	C379.858124,113.890221 381.163300,111.081001 380.935944,109.168526 
	C380.594604,106.296928 382.748138,107.022598 384.240814,107.007515 
	C389.231812,106.957085 394.223633,106.997841 399.215057,106.982918 
	C400.738342,106.978363 402.437805,106.761406 402.031464,109.142097 
	C401.737030,110.866768 403.246918,113.675949 400.033844,113.841118 
	C396.557983,114.019806 396.633240,116.084801 396.655884,118.572731 
	C396.722595,125.892944 396.770996,133.215729 396.651123,140.534653 
	C396.493500,150.155945 392.649628,155.571869 384.320099,158.277771 
	C374.944794,161.323395 364.071777,158.837723 359.035675,152.538437 
	C356.279114,149.090485 355.624298,145.054108 355.617676,140.822372 
	C355.605927,133.335159 355.574432,125.847656 355.629639,118.360863 
	C355.646759,116.037094 355.662384,114.041626 352.472229,113.921059 
	C348.895905,113.785889 350.250854,110.900154 350.092712,109.001694 
	C349.849152,106.077477 352.181519,107.057945 353.579254,107.028061 
	C358.402161,106.924957 363.229431,106.939560 368.053162,107.021339 
	C369.326355,107.042931 371.445190,106.224632 371.201935,108.787910 
	C371.024384,110.659172 372.560547,113.647484 369.063110,113.873413 
	C365.885284,114.078690 365.873199,115.891090 365.896515,118.235771 
	C365.974304,126.054977 365.939240,133.875336 365.941986,141.695251 
	C365.943298,145.437531 367.070557,148.561783 371.006683,150.572723 
z"/>
<path fill="#F8F8F8" opacity="1.000000" stroke="none" 
	d="
M883.368774,70.563263 
	C877.662048,73.566315 871.927368,73.901413 866.048096,73.060356 
	C856.771301,71.733246 851.034241,65.671104 850.722473,56.357647 
	C850.455322,48.377563 850.638123,40.382679 850.601929,32.394424 
	C850.593140,30.449314 851.089783,28.094667 847.997009,28.045202 
	C844.179382,27.984140 845.121399,25.205715 845.074646,23.033819 
	C845.003418,19.724306 847.592957,21.104885 849.051697,21.051468 
	C853.705566,20.881046 858.370605,20.935394 863.029053,21.023333 
	C864.294617,21.047220 866.429138,20.200539 866.198425,22.765182 
	C866.030212,24.635923 867.572021,27.630001 864.083252,27.868013 
	C860.925293,28.083454 860.869385,29.852247 860.894531,32.216995 
	C860.977783,40.038418 860.840393,47.862789 860.972595,55.682903 
	C861.082397,62.175999 864.561340,65.488762 870.942688,65.538734 
	C877.378357,65.589127 880.995361,62.354439 881.138733,55.941799 
	C881.320984,47.790661 881.192749,39.632828 881.231750,31.478043 
	C881.240234,29.696346 881.199585,28.041380 878.786926,28.033024 
	C874.891968,28.019537 876.020447,25.103882 875.955872,22.998011 
	C875.854736,19.698053 878.464355,21.103811 879.914368,21.051134 
	C884.568359,20.882063 889.233154,20.941641 893.891968,21.018887 
	C895.174255,21.040146 897.293884,20.247753 896.999207,22.818558 
	C896.787354,24.667030 898.422058,27.656973 894.855469,27.876215 
	C891.706726,28.069775 891.632263,29.893976 891.654114,32.255375 
	C891.723267,39.744164 891.714966,47.234306 891.661621,54.723392 
	C891.615173,61.243462 889.652893,66.834396 883.368774,70.563263 
z"/>
<path fill="#FBFBFB" opacity="1.000000" stroke="none" 
	d="
M529.110718,106.994698 
	C534.915161,107.002998 540.241577,106.876900 545.558472,107.047234 
	C557.064270,107.415833 565.607849,115.886139 565.955383,127.364807 
	C566.105896,132.335342 566.568359,137.367157 565.559631,142.290817 
	C563.600403,151.854202 556.050110,158.505051 546.383545,158.901215 
	C539.077393,159.200653 531.750305,158.992874 524.432495,159.001617 
	C522.956665,159.003372 521.289185,159.299561 521.423096,156.902115 
	C521.530151,154.986191 520.823425,152.507706 523.809326,152.358185 
	C526.844116,152.206238 527.022888,150.544144 526.997437,148.111633 
	C526.891296,137.967316 526.985718,127.821022 526.915039,117.676086 
	C526.905090,116.250717 527.842896,114.025848 525.045044,113.962448 
	C521.507324,113.882301 521.119507,111.654106 521.442810,108.892273 
	C521.849243,105.420944 524.552490,107.568947 526.147827,107.037415 
	C526.896362,106.788033 527.796753,106.994698 529.110718,106.994698 
z"/>
<path fill="#FBFBFB" opacity="1.000000" stroke="none" 
	d="
M259.904358,24.743910 
	C259.878662,26.176397 259.926605,27.615410 258.752930,27.601301 
	C253.491470,27.538050 254.237152,31.145981 254.259384,34.457878 
	C254.304138,41.121288 254.180405,47.786919 254.301834,54.448433 
	C254.439972,62.026863 257.932983,65.651100 264.724274,65.558609 
	C271.490295,65.466461 274.804565,61.809246 274.872040,54.170288 
	C274.938263,46.674202 274.845123,39.176689 274.915314,31.680677 
	C274.934631,29.618259 274.724945,28.010653 272.137939,27.998175 
	C268.715424,27.981667 269.421234,25.443588 269.294617,23.349592 
	C269.101990,20.163567 271.440613,21.049606 273.062927,21.021364 
	C277.559570,20.943090 282.062195,20.890766 286.554352,21.052366 
	C288.053162,21.106283 290.593140,19.799683 290.619202,23.017017 
	C290.637146,25.232573 291.407898,28.018583 287.646057,28.021065 
	C284.907684,28.022871 285.038086,29.897846 285.045288,31.814787 
	C285.074707,39.644516 285.120178,47.475124 285.037018,55.304104 
	C284.929718,65.406082 279.168396,71.770119 269.143707,73.114502 
	C265.979492,73.538841 262.839966,73.524658 259.684204,73.078796 
	C249.998795,71.710381 244.215393,65.304237 244.065247,55.485962 
	C243.945541,47.657921 244.045761,39.826633 244.027405,31.996836 
	C244.023254,30.229429 244.531693,28.073475 241.646988,28.050913 
	C237.830627,28.021059 238.768875,25.208855 238.713440,23.033693 
	C238.628738,19.710688 241.217926,21.105101 242.675049,21.055857 
	C247.500702,20.892763 252.341675,21.143349 257.164062,20.937723 
	C259.950409,20.818914 260.106476,22.282310 259.904358,24.743910 
z"/>
<path fill="#F9F9F9" opacity="1.000000" stroke="none" 
	d="
M611.963196,73.010666 
	C602.808411,73.010635 594.147766,73.053986 585.488464,72.965500 
	C584.133667,72.951653 581.851074,74.042328 581.970093,71.033516 
	C582.051880,68.967758 581.297668,66.392815 584.622742,66.254135 
	C587.206299,66.146370 587.383545,64.632370 587.371216,62.582554 
	C587.309204,52.257290 587.334656,41.931438 587.350830,31.605825 
	C587.353760,29.733852 587.568481,27.904896 584.788025,27.811661 
	C581.119019,27.688631 581.939575,24.846802 582.013062,22.667671 
	C582.111816,19.738338 584.482178,21.066673 585.789185,21.053320 
	C596.779846,20.941017 607.773254,21.076525 618.763123,20.928358 
	C621.523804,20.891138 622.742615,21.559191 622.402527,24.478479 
	C622.191956,26.285904 622.632568,28.190134 622.289490,29.955381 
	C621.933716,31.785561 624.183289,35.043659 619.860474,35.062714 
	C616.892212,35.075794 613.481079,35.839527 614.103027,30.895840 
	C614.297485,29.350248 613.384277,28.903692 611.983398,28.960142 
	C610.486938,29.020439 608.986206,28.971050 607.487305,28.970974 
	C597.011169,28.970442 597.102356,28.965118 597.720947,39.331024 
	C597.855591,41.587318 598.568542,42.140278 600.652893,42.067032 
	C604.478699,41.932594 608.327393,42.237709 612.138489,41.965893 
	C615.384216,41.734398 615.192810,43.668045 614.990845,45.709656 
	C614.809448,47.543274 616.214111,50.302216 612.288086,50.061165 
	C608.471985,49.826866 604.623413,50.149609 600.802246,49.960930 
	C598.365295,49.840599 597.816284,50.700417 597.725830,53.054207 
	C597.264343,65.068672 597.186951,65.032455 609.369141,65.054756 
	C612.090576,65.059738 614.576416,65.474854 614.541260,61.332485 
	C614.507263,57.324093 617.905884,59.387012 619.826660,58.983833 
	C622.169861,58.491989 622.664917,59.957935 622.472595,61.916080 
	C622.440186,62.245953 622.463379,62.581882 622.469421,62.914864 
	C622.652283,73.010674 622.652527,73.010666 611.963196,73.010666 
z"/>
<path fill="#FCFCFC" opacity="1.000000" stroke="none" 
	d="
M727.527344,72.998550 
	C724.344788,69.840645 724.655334,66.936768 728.176697,66.363647 
	C731.159912,65.878098 730.969543,64.291771 730.964844,62.254074 
	C730.941162,52.104469 730.949890,41.954773 730.957886,31.805120 
	C730.959473,29.820276 731.370178,27.780687 728.195679,27.759781 
	C724.962463,27.738489 725.430237,25.177534 725.429504,23.020823 
	C725.428589,20.164734 727.573364,21.034956 729.013550,21.027576 
	C740.161255,20.970455 751.310730,21.091476 762.456360,20.930573 
	C765.320435,20.889227 766.303650,21.762606 765.992981,24.557346 
	C765.791992,26.365263 765.662231,28.271683 766.010925,30.032938 
	C767.006409,35.061535 764.187683,35.420464 760.405029,35.088223 
	C758.907776,34.956711 757.702820,34.867962 757.929077,32.969902 
	C758.390686,29.096636 756.147461,28.640638 753.082153,28.932076 
	C751.268250,29.104523 749.424622,28.963455 747.594360,28.963636 
	C741.120056,28.964275 741.120056,28.964317 741.120178,35.576626 
	C741.120300,42.035881 741.120300,42.035912 747.747803,42.036369 
	C749.744446,42.036507 751.741089,42.030571 753.737732,42.037567 
	C758.394287,42.053879 759.639709,43.850121 758.571594,48.393520 
	C758.094482,50.423000 756.759216,49.968204 755.541504,49.985748 
	C752.048096,50.036087 748.530640,50.252438 745.065735,49.934158 
	C741.596191,49.615459 740.784851,51.052055 741.073853,54.157124 
	C741.304138,56.631516 741.268188,59.155689 741.079224,61.637112 
	C740.888062,64.147224 741.554321,65.335670 744.327576,65.082916 
	C746.802856,64.857323 749.315369,65.004639 751.810608,65.044205 
	C755.058289,65.095695 758.335083,65.989601 758.252258,60.479122 
	C758.206360,57.425705 761.734802,59.466152 763.587769,59.001675 
	C765.083374,58.626774 766.209229,59.190151 765.991882,61.066921 
	C765.972839,61.231014 765.979431,61.400341 765.993164,61.565647 
	C766.943604,73.003990 766.943787,73.004066 755.426208,73.003937 
	C746.274902,73.003838 737.123535,73.003471 727.527344,72.998550 
z"/>
<path fill="#F8F8F8" opacity="1.000000" stroke="none" 
	d="
M465.100403,53.961460 
	C461.778412,66.470940 454.740814,72.838806 443.801208,73.403328 
	C434.232880,73.897087 426.888977,69.979836 422.628876,61.388657 
	C417.929443,51.911331 417.944336,42.083836 422.645233,32.597305 
	C427.194366,23.417145 435.640381,19.453791 446.312683,20.864046 
	C455.384369,22.062796 462.902191,29.419540 464.967377,39.198704 
	C465.972534,43.958523 466.293945,48.747623 465.100403,53.961460 
z"/>
<path fill="#F8F8F8" opacity="1.000000" stroke="none" 
	d="
M689.401611,70.815430 
	C673.485535,62.048260 675.153503,36.632000 684.023010,27.425480 
	C692.209961,18.927408 709.323792,18.144356 718.272278,26.231848 
	C719.698425,27.520771 720.874695,36.415409 719.547058,37.438576 
	C717.856567,38.741371 715.709167,37.793987 713.773315,37.991238 
	C712.116455,38.160061 711.925171,36.971786 711.834106,35.765377 
	C711.513794,31.517658 709.359619,29.284281 705.010010,28.753311 
	C699.714172,28.106833 695.017395,28.793823 691.556885,33.256199 
	C686.688538,39.534039 686.274231,53.150887 690.672485,59.858036 
	C693.981262,64.903801 702.663818,67.321609 708.063416,64.614197 
	C711.572266,62.854847 709.466492,59.591457 709.837463,57.033146 
	C710.245667,54.218533 707.770264,54.868507 706.384583,54.954380 
	C702.727051,55.181061 702.573364,53.121258 702.475464,50.276436 
	C702.356995,46.832928 704.367798,47.059719 706.627075,47.139595 
	C710.921448,47.291416 716.498291,45.796913 719.164185,47.941948 
	C722.005127,50.227768 719.981018,56.037781 720.063660,60.300327 
	C720.215820,68.152695 719.284363,69.554832 711.637756,71.891563 
	C704.307556,74.131607 696.907776,74.408974 689.401611,70.815430 
z"/>
<path fill="#FAFAFA" opacity="1.000000" stroke="none" 
	d="
M856.819458,139.369003 
	C852.739380,154.517685 843.243652,161.221802 829.460022,159.064362 
	C829.296021,159.038681 829.128662,159.032898 828.965454,159.003510 
	C816.955811,156.840805 809.570312,144.325317 811.046021,128.639191 
	C812.291077,115.404572 822.212097,106.138283 834.689941,106.555626 
	C847.188904,106.973671 856.441467,116.602211 857.066040,129.977524 
	C857.205078,132.955170 856.961426,135.950684 856.819458,139.369003 
z"/>
<path fill="#FAFAFA" opacity="1.000000" stroke="none" 
	d="
M310.377747,114.665222 
	C317.154205,123.691116 317.588593,133.486877 314.685852,143.428726 
	C311.436401,154.558014 301.751953,160.477066 290.115082,159.258087 
	C279.465637,158.142548 271.281921,149.461304 270.121521,137.740189 
	C269.697205,133.454330 269.643097,129.133255 270.763153,124.856514 
	C273.029480,116.203026 277.823364,109.606285 286.689697,107.364670 
	C295.637543,105.102440 303.875000,106.883598 310.377747,114.665222 
z"/>
<path fill="#FAFAFA" opacity="1.000000" stroke="none" 
	d="
M616.313293,155.389526 
	C616.560547,157.900192 616.197327,159.226913 613.490601,159.065338 
	C609.679749,158.837875 605.843201,159.076004 602.021973,158.965027 
	C600.923279,158.933136 598.898071,159.812561 599.057861,157.602081 
	C599.180115,155.910721 597.534607,153.262268 600.636414,152.658447 
	C603.261292,152.147446 603.338013,150.012375 603.953186,148.244904 
	C608.311218,135.722748 612.877441,123.262253 616.778748,110.597687 
	C618.188232,106.022102 621.129272,107.222046 624.050415,106.964935 
	C627.140503,106.692955 629.006592,107.241783 630.136719,110.824333 
	C634.124512,123.466103 638.628418,135.944687 642.898254,148.498199 
	C643.538513,150.380478 643.853577,152.237320 646.379639,152.748062 
	C649.126709,153.303497 647.651978,155.730240 647.836060,157.318787 
	C648.089966,159.510178 646.244995,158.966949 645.056946,158.985443 
	C641.233459,159.044952 637.406921,159.068054 633.584900,158.971359 
	C632.428772,158.942108 630.547424,159.729095 630.411987,157.700729 
	C630.300964,156.039246 629.251038,153.608337 631.485291,152.813934 
	C635.145691,151.512482 632.651184,149.441650 632.482483,147.681656 
	C632.264221,145.404572 630.862305,144.851562 628.700317,144.961105 
	C625.217346,145.137589 621.718567,144.977661 618.227173,145.018402 
	C615.579895,145.049301 612.460876,148.901138 613.144653,151.328506 
	C613.615784,153.001221 616.992126,152.253418 616.313293,155.389526 
z"/>
<path fill="#F8F8F8" opacity="1.000000" stroke="none" 
	d="
M196.990570,63.543343 
	C196.990402,61.938648 196.876328,60.758480 197.016510,59.609329 
	C197.240677,57.771645 195.797195,54.941292 199.696106,55.157261 
	C202.420990,55.308197 205.629059,54.350506 205.512695,58.862797 
	C205.411041,62.805672 207.839554,64.441368 211.305496,64.962639 
	C215.590042,65.607018 220.080368,66.592072 223.461212,62.798603 
	C226.244415,59.675743 224.812531,55.242050 220.364441,53.039188 
	C215.305023,50.533592 209.593552,49.632214 204.645050,46.797745 
	C200.202042,44.252834 197.084366,40.882504 196.945404,35.415230 
	C196.766129,28.361704 201.696594,22.623552 209.708038,21.135294 
	C215.689636,20.024107 221.564606,20.527033 227.363968,22.747814 
	C232.487137,24.709656 235.517624,27.605812 234.311951,33.487011 
	C233.961731,35.195400 235.328873,37.790470 231.811325,37.703102 
	C228.999771,37.633266 226.084381,38.351200 225.889511,33.877289 
	C225.626282,27.834570 220.436050,29.006510 216.840393,28.605465 
	C212.969452,28.173717 208.928421,28.766844 207.432251,33.318493 
	C206.330902,36.668949 208.382324,38.792751 211.185806,39.984707 
	C215.455658,41.800140 219.909790,43.181652 224.182388,44.991268 
	C228.715012,46.911015 232.685837,49.546345 234.364639,54.600353 
	C236.658279,61.505306 234.047897,68.251221 227.149597,71.147339 
	C217.620667,75.147873 208.302460,74.323326 199.644821,68.382011 
	C198.114594,67.331894 196.633667,66.196312 196.990570,63.543343 
z"/>
<path fill="#F7F7F7" opacity="1.000000" stroke="none" 
	d="
M236.828720,110.224274 
	C236.829193,112.531441 237.066879,114.405251 236.761642,116.186005 
	C236.463196,117.927162 238.449005,121.005211 234.555542,121.016876 
	C231.873413,121.024918 228.171783,122.377823 228.543411,117.263069 
	C228.658493,115.679176 227.854691,114.794998 226.109085,114.960670 
	C225.118225,115.054710 224.111008,114.976639 223.111145,114.975479 
	C210.922928,114.961334 210.993347,114.957062 211.733124,127.231071 
	C211.864258,129.406937 212.444962,130.104599 214.600204,130.026169 
	C218.594330,129.880783 222.612335,130.197952 226.592575,129.921738 
	C230.100525,129.678268 229.699783,131.794724 229.737885,134.013916 
	C229.777969,136.348785 229.882782,138.295273 226.485687,138.037476 
	C222.840546,137.760864 219.137527,138.215851 215.498108,137.904083 
	C212.235321,137.624588 211.463013,138.913193 211.752106,141.852615 
	C211.979370,144.163300 211.847031,146.515488 211.782562,148.846710 
	C211.733521,150.620575 211.737671,152.178162 214.162781,152.266510 
	C217.709305,152.395706 217.215256,155.039536 217.096832,157.317429 
	C216.945816,160.221985 214.642700,158.907639 213.317139,158.951630 
	C208.489807,159.111862 203.653503,159.049591 198.821594,158.989349 
	C197.662354,158.974884 195.787933,159.632401 196.022980,157.377823 
	C196.202682,155.654266 194.717865,152.883057 197.897827,152.618851 
	C201.569473,152.313782 201.384979,150.047150 201.365417,147.422653 
	C201.292160,137.591232 201.328140,127.758934 201.342545,117.927002 
	C201.345490,115.917328 201.701370,113.857483 198.602951,113.774345 
	C195.220947,113.683586 196.068054,111.032410 195.967941,108.985077 
	C195.821152,105.983353 198.100861,107.035812 199.467896,107.026909 
	C210.799164,106.953148 222.131195,107.006699 233.462799,106.965225 
	C235.464584,106.957893 237.244507,106.956467 236.828720,110.224274 
z"/>
<path fill="#F7F7F7" opacity="1.000000" stroke="none" 
	d="
M721.234497,116.817162 
	C721.689514,120.214111 720.321350,121.115944 717.560547,120.832733 
	C715.486267,120.619942 713.112793,121.403229 713.077454,117.887756 
	C713.021362,112.304123 708.715271,115.697083 706.422546,115.073837 
	C703.221619,114.203751 703.664185,116.815491 703.664429,118.763092 
	C703.665833,128.581436 703.697021,138.399963 703.640076,148.217972 
	C703.627625,150.365173 703.611023,152.144119 706.516235,152.284348 
	C709.894592,152.447403 708.984802,155.140213 709.030640,157.147522 
	C709.098694,160.125504 706.761353,158.923340 705.427673,158.961380 
	C700.605591,159.098923 695.776855,159.050461 690.951599,158.992447 
	C689.630066,158.976562 687.653076,159.667725 687.896240,157.094421 
	C688.066101,155.296829 686.902832,152.648315 689.989258,152.396408 
	C692.939270,152.155624 693.283020,150.644608 693.251709,148.138870 
	C693.128784,138.322067 693.228760,128.502655 693.174072,118.684624 
	C693.165161,117.081245 693.983093,114.302307 690.882751,115.096306 
	C688.462219,115.716179 684.009277,112.153854 683.811096,118.031662 
	C683.677979,121.978798 680.727600,120.487747 678.690552,120.800117 
	C676.148743,121.189865 675.757080,119.859955 675.658630,117.632393 
	C675.187927,106.981468 675.121887,106.984390 685.603821,106.984390 
	C695.755005,106.984390 705.918518,107.279083 716.051758,106.852089 
	C720.673828,106.657333 721.910706,108.186539 721.266052,112.356468 
	C721.065002,113.656685 721.234619,115.014214 721.234497,116.817162 
z"/>
<path fill="#FCFCFC" opacity="1.000000" stroke="none" 
	d="
M543.612244,28.570807 
	C539.269104,28.561802 539.217896,26.004372 539.416687,23.116404 
	C539.660339,19.575714 542.325806,21.138765 543.926086,21.068445 
	C548.576477,20.864107 553.241577,21.005676 557.900940,20.991400 
	C559.465515,20.986607 561.137817,20.916502 560.731323,23.225214 
	C560.430603,24.933186 562.044678,27.691813 558.815735,27.979393 
	C555.441589,28.279905 555.020264,30.105198 555.064941,32.983082 
	C555.212097,42.465900 555.221130,51.954151 555.058044,61.436443 
	C555.010193,64.219086 555.706177,65.376015 558.625610,65.082504 
	C560.931946,64.850624 563.298950,64.850227 565.605347,65.081741 
	C568.712585,65.393639 570.149170,64.512192 570.033264,61.092766 
	C569.888123,56.813076 573.351990,59.181973 575.204346,58.724617 
	C577.282837,58.211452 577.921143,59.263927 578.056885,61.428307 
	C578.783691,73.008675 578.856995,73.004082 567.557251,73.004074 
	C559.403381,73.004066 551.249084,73.044891 543.096008,72.965126 
	C541.684570,72.951324 539.485535,73.928223 539.439819,71.061600 
	C539.405701,68.921455 538.913086,66.480042 542.144958,66.244507 
	C544.086975,66.102982 545.029480,65.506157 545.005005,63.261631 
	C544.885620,52.280178 544.957275,41.296722 544.900879,30.314285 
	C544.898132,29.782852 544.322327,29.254368 543.612244,28.570807 
z"/>
<path fill="#FCFCFC" opacity="1.000000" stroke="none" 
	d="
M772.889648,106.996368 
	C775.291260,106.789085 776.750122,107.139252 776.316467,109.569778 
	C776.010803,111.282875 777.450317,113.937737 774.088928,114.090462 
	C771.063538,114.227921 770.894409,116.103271 770.916626,118.518478 
	C771.008606,128.510223 770.969421,138.503342 770.943115,148.495865 
	C770.938232,150.375549 770.703369,152.163773 773.500183,152.228287 
	C776.704712,152.302200 776.343445,154.730057 776.337524,156.928421 
	C776.328613,160.233841 773.841614,158.895706 772.372925,158.945435 
	C767.715027,159.103134 763.047363,159.058624 758.385986,158.967377 
	C757.113342,158.942459 755.025208,159.792480 755.152771,157.232025 
	C755.241394,155.453629 754.055115,152.708389 757.139038,152.497437 
	C760.707092,152.253357 760.822815,150.239578 760.792114,147.485977 
	C760.684448,137.827682 760.718384,128.167252 760.775024,118.508080 
	C760.787537,116.381165 760.839111,114.291588 758.024902,114.231697 
	C754.169312,114.149643 755.258118,111.389587 755.110107,109.254303 
	C754.883301,105.982719 757.367981,107.076584 758.912598,107.037041 
	C763.406311,106.921989 767.904907,106.996239 772.889648,106.996368 
z"/>
<path fill="#6139B1" opacity="1.000000" stroke="none" 
	d="
M54.363029,111.352600 
	C55.308468,105.185349 56.502003,99.372566 57.633263,93.547691 
	C58.060528,91.347725 59.053040,89.433403 61.498806,90.250420 
	C63.997231,91.085030 62.085659,93.108528 61.724380,94.400795 
	C59.323978,102.986702 57.572083,111.687569 56.301353,120.851273 
	C52.926605,118.410439 55.928143,114.723297 54.363029,111.352600 
z"/>
<path fill="#5A1CD5" opacity="1.000000" stroke="none" 
	d="
M54.089462,111.329453 
	C57.927578,113.457344 55.022499,117.224884 55.994438,120.700165 
	C56.026108,121.567001 56.015343,121.973747 55.942917,122.680435 
	C54.728535,126.815247 56.126469,130.622482 56.014565,134.850586 
	C56.404690,137.337662 56.607986,139.433563 56.482117,141.942398 
	C56.309746,143.412720 55.632839,144.189896 54.606384,145.163147 
	C53.796669,145.562347 53.296509,145.594696 52.477547,145.250610 
	C52.142353,144.859299 52.116131,144.689987 52.136208,144.267914 
	C52.730885,139.277588 52.158722,134.518112 52.314316,129.379913 
	C52.134224,128.227631 52.101025,127.471184 52.121689,126.338928 
	C53.880123,122.030495 53.653023,117.739151 54.305458,113.304062 
	C54.111057,112.530357 54.075138,112.093155 54.089462,111.329453 
z"/>
<path fill="#623CB1" opacity="1.000000" stroke="none" 
	d="
M137.004684,71.410660 
	C141.143234,72.035759 141.451431,75.989372 141.701630,78.842514 
	C142.661163,89.784554 141.020294,100.470154 136.356018,110.833359 
	C137.199768,103.552406 139.557648,96.349823 140.444077,88.791924 
	C141.173157,82.575729 140.253616,77.034264 137.004684,71.410660 
z"/>
<path fill="#623CB1" opacity="1.000000" stroke="none" 
	d="
M103.167336,72.829529 
	C108.962990,68.192902 116.219650,67.303337 123.565483,67.046387 
	C128.236160,66.883011 133.183701,66.215691 136.913605,70.676514 
	C125.457260,65.011192 114.535889,69.424797 103.167336,72.829529 
z"/>
<path fill="#623CB1" opacity="1.000000" stroke="none" 
	d="
M55.710281,143.254791 
	C55.854683,140.900650 56.206867,138.754700 55.211063,136.352493 
	C55.983524,134.229706 55.227802,132.312973 55.855167,130.201843 
	C57.049389,139.135330 57.171768,148.512283 60.963203,157.622803 
	C57.444832,156.295990 58.351192,152.033020 56.020927,149.029480 
	C55.676281,148.208893 55.460213,147.914307 55.158142,147.328232 
	C54.991375,146.867752 54.943386,146.674149 54.882420,146.176971 
	C55.012672,145.062973 55.024632,144.217072 55.710281,143.254791 
z"/>
<path fill="#623CB1" opacity="1.000000" stroke="none" 
	d="
M73.915154,171.647781 
	C67.275589,171.373352 61.690311,165.792343 60.949966,158.434113 
	C64.036201,163.636139 67.718346,168.628479 73.915154,171.647781 
z"/>
<path fill="#6139B1" opacity="1.000000" stroke="none" 
	d="
M73.240936,179.333817 
	C78.691551,179.008881 84.393501,178.976105 90.563133,178.992096 
	C85.268883,181.761261 79.395538,181.142410 73.240936,179.333817 
z"/>
<path fill="#6845A9" opacity="1.000000" stroke="none" 
	d="
M36.154358,88.208488 
	C42.570435,87.957703 49.334923,87.940773 56.570450,87.911903 
	C57.197895,88.041809 57.354298,88.183655 57.292099,88.554688 
	C50.197807,89.801453 43.336853,89.931290 36.154358,88.208488 
z"/>
<path fill="#6A5399" opacity="1.000000" stroke="none" 
	d="
M7.725074,41.983402 
	C7.166707,48.847218 6.323146,56.008316 8.055527,63.593536 
	C4.727834,56.861156 5.353192,49.590389 7.725074,41.983402 
z"/>
<path fill="#6343A8" opacity="1.000000" stroke="none" 
	d="
M129.872818,45.623779 
	C123.991844,46.192047 117.858032,45.521992 111.416710,46.919403 
	C112.937119,44.471947 115.728127,45.169888 118.673950,44.838421 
	C121.372963,44.251369 123.690224,44.609600 126.422890,44.567524 
	C127.793091,44.851109 128.732605,45.085705 129.872818,45.623779 
z"/>
<path fill="#6139B1" opacity="1.000000" stroke="none" 
	d="
M54.053684,113.368851 
	C55.884266,117.438454 54.234287,121.575027 52.530876,125.852257 
	C52.082348,121.798065 53.108471,117.796852 54.053684,113.368851 
z"/>
<path fill="#6139B1" opacity="1.000000" stroke="none" 
	d="
M54.901123,158.411209 
	C57.872925,160.836227 58.693020,164.672775 59.985306,168.646423 
	C57.041626,166.224670 55.657749,162.651413 54.901123,158.411209 
z"/>
<path fill="#6139B1" opacity="1.000000" stroke="none" 
	d="
M52.071320,129.400879 
	C53.805065,133.722534 52.945686,138.550034 52.431236,143.685745 
	C51.377182,139.293396 51.364025,134.560104 52.071320,129.400879 
z"/>
<path fill="#623CB1" opacity="1.000000" stroke="none" 
	d="
M69.389908,86.009583 
	C71.049675,83.158630 74.174606,83.207237 77.573471,82.950775 
	C75.545082,84.819351 72.627785,85.341682 69.389908,86.009583 
z"/>
<path fill="#623CB1" opacity="1.000000" stroke="none" 
	d="
M60.296341,87.944244 
	C62.089321,84.970688 65.326645,86.333214 68.557022,85.948669 
	C66.441658,87.556725 63.611118,87.919388 60.296341,87.944244 
z"/>
<path fill="#6E5F83" opacity="1.000000" stroke="none" 
	d="
M161.298950,87.836884 
	C161.006134,84.083496 160.962082,79.986748 160.965088,75.425415 
	C161.220963,74.897217 161.429794,74.833595 161.762268,75.073174 
	C161.885666,79.418571 162.532455,83.478828 161.298950,87.836884 
z"/>
<path fill="#7044C8" opacity="1.000000" stroke="none" 
	d="
M56.165482,129.469650 
	C55.932373,131.734268 55.745708,133.566956 55.315575,135.694183 
	C55.131645,131.868164 54.568382,127.732445 55.627296,123.305222 
	C55.991482,124.999489 56.101707,127.018616 56.165482,129.469650 
z"/>
<path fill="#6139B1" opacity="1.000000" stroke="none" 
	d="
M55.845150,147.043915 
	C56.022339,147.299545 56.012329,147.453262 56.004704,147.529907 
	C56.114124,147.841385 56.231167,148.076202 56.171326,148.662567 
	C55.994434,149.014145 55.998119,149.000961 56.004276,148.997742 
	C55.242386,149.007828 54.474339,149.021133 53.324043,149.064438 
	C51.579926,148.267426 52.125507,146.923721 52.102478,145.390289 
	C52.566692,145.036453 52.964813,145.044312 53.661537,145.061310 
	C54.857765,145.316635 55.161587,146.153137 55.845150,147.043915 
z"/>
<path fill="#623CB1" opacity="1.000000" stroke="none" 
	d="
M83.390846,81.058762 
	C84.438751,78.507057 86.881325,78.113525 89.839493,77.979675 
	C88.366913,79.632645 86.092499,80.419327 83.390846,81.058762 
z"/>
<path fill="#6139B1" opacity="1.000000" stroke="none" 
	d="
M67.115067,176.362289 
	C69.200645,176.133514 71.355362,176.391220 72.904388,178.689056 
	C70.696449,179.121155 68.986511,177.868530 67.115067,176.362289 
z"/>
<path fill="#623CB1" opacity="1.000000" stroke="none" 
	d="
M95.379959,76.006989 
	C96.067261,72.863129 98.969727,73.488640 101.681488,72.927994 
	C100.424622,74.906990 97.829208,74.936539 95.379959,76.006989 
z"/>
<path fill="#6139B1" opacity="1.000000" stroke="none" 
	d="
M98.140442,176.856476 
	C98.783936,174.360504 100.977043,174.117569 103.569809,173.943420 
	C102.556107,175.732773 100.389206,176.051727 98.140442,176.856476 
z"/>
<path fill="#6139B1" opacity="1.000000" stroke="none" 
	d="
M53.126221,151.195541 
	C56.113132,152.269928 54.582619,155.014404 55.011795,157.593842 
	C53.543823,156.101486 53.556129,153.763733 53.126221,151.195541 
z"/>
<path fill="#623CB1" opacity="1.000000" stroke="none" 
	d="
M88.625351,169.993378 
	C87.643936,172.162216 85.637428,172.671722 83.058807,172.065826 
	C84.643860,171.206741 86.450455,170.589050 88.625351,169.993378 
z"/>
<path fill="#181718" opacity="1.000000" stroke="none" 
	d="
M74.428467,44.623993 
	C74.168762,42.271511 74.139488,39.616322 74.163315,36.523712 
	C75.641304,38.762657 75.041779,41.547791 74.428467,44.623993 
z"/>
<path fill="#6139B1" opacity="1.000000" stroke="none" 
	d="
M91.395340,179.092850 
	C92.386848,177.240646 94.362717,176.989044 96.816025,176.976303 
	C95.714668,178.521957 93.767220,178.888321 91.395340,179.092850 
z"/>
<path fill="#6139B1" opacity="1.000000" stroke="none" 
	d="
M134.310150,147.857834 
	C133.893448,146.152664 134.343369,144.662888 136.684479,144.068909 
	C137.032806,145.806000 135.539352,146.584824 134.310150,147.857834 
z"/>
<path fill="#6139B1" opacity="1.000000" stroke="none" 
	d="
M130.203018,152.707993 
	C129.931534,151.055313 130.423294,149.602280 132.689148,149.068604 
	C132.903320,150.742477 131.539459,151.556534 130.203018,152.707993 
z"/>
<path fill="#181718" opacity="1.000000" stroke="none" 
	d="
M126.544418,44.432484 
	C124.551483,44.688152 122.249382,44.759789 119.516136,44.792557 
	C121.385574,43.412926 123.823624,44.017590 126.544418,44.432484 
z"/>
<path fill="#6139B1" opacity="1.000000" stroke="none" 
	d="
M117.372566,165.013275 
	C117.115189,163.007690 118.342873,162.153610 120.552498,161.944183 
	C120.207779,163.358810 119.008568,164.233932 117.372566,165.013275 
z"/>
<path fill="#623CB1" opacity="1.000000" stroke="none" 
	d="
M135.767181,111.255783 
	C135.960617,112.744171 136.516464,114.611816 134.485901,116.079834 
	C133.976822,114.474365 134.917923,113.027802 135.767181,111.255783 
z"/>
<path fill="#623CB1" opacity="1.000000" stroke="none" 
	d="
M78.353027,83.009613 
	C78.842415,81.062965 80.546700,80.969009 82.652298,80.991219 
	C81.894577,82.377266 80.255219,82.613281 78.353027,83.009613 
z"/>
<path fill="#623CB1" opacity="1.000000" stroke="none" 
	d="
M92.683914,168.070984 
	C92.760674,170.090225 91.188278,169.978500 89.385391,170.044617 
	C90.130264,169.359116 91.241623,168.715744 92.683914,168.070984 
z"/>
<path fill="#623CB1" opacity="1.000000" stroke="none" 
	d="
M129.727661,126.190781 
	C130.009583,127.456337 130.348022,129.000687 128.349960,129.926544 
	C128.478973,128.775711 128.959671,127.563782 129.727661,126.190781 
z"/>
<path fill="#623CB1" opacity="1.000000" stroke="none" 
	d="
M96.658417,166.002487 
	C96.789238,167.991455 95.252991,167.981522 93.437752,168.069397 
	C94.158112,167.363312 95.244858,166.690781 96.658417,166.002487 
z"/>
<path fill="#6139B1" opacity="1.000000" stroke="none" 
	d="
M59.988792,169.346039 
	C61.386620,169.067871 61.920479,169.950668 62.055000,171.560226 
	C60.950054,171.544724 60.414860,170.663223 59.988792,169.346039 
z"/>
<path fill="#6139B1" opacity="1.000000" stroke="none" 
	d="
M109.304520,170.933395 
	C109.083618,169.528381 110.003830,169.038986 111.625473,168.975403 
	C111.526817,170.052734 110.557320,170.461090 109.304520,170.933395 
z"/>
<path fill="#623CB1" opacity="1.000000" stroke="none" 
	d="
M80.688110,172.056519 
	C79.710609,173.308853 78.150688,173.102737 76.291992,172.429321 
	C77.435959,172.145386 78.849297,172.067886 80.688110,172.056519 
z"/>
<path fill="#6139B1" opacity="1.000000" stroke="none" 
	d="
M104.309891,173.933990 
	C104.126366,172.410370 105.160965,172.005981 106.857437,171.992828 
	C106.721451,173.134323 105.622147,173.450577 104.309891,173.933990 
z"/>
<path fill="#6139B1" opacity="1.000000" stroke="none" 
	d="
M64.217041,174.233932 
	C65.262344,173.962860 66.408707,174.007126 66.920219,175.698746 
	C65.759705,176.092010 65.062515,175.278305 64.217041,174.233932 
z"/>
<path fill="#623CB1" opacity="1.000000" stroke="none" 
	d="
M122.676048,138.857239 
	C123.004860,139.926910 123.145584,141.216339 121.310020,141.897552 
	C120.845474,140.691803 121.730133,139.919907 122.676048,138.857239 
z"/>
<path fill="#623CB1" opacity="1.000000" stroke="none" 
	d="
M125.646881,134.081299 
	C126.046112,135.158691 126.037735,136.307388 124.364319,136.952225 
	C124.466232,136.070358 124.909355,135.135315 125.646881,134.081299 
z"/>
<path fill="#6139B1" opacity="1.000000" stroke="none" 
	d="
M142.293015,137.036530 
	C141.954773,135.967880 141.886093,134.736801 143.630264,134.063568 
	C144.082596,135.240891 143.299377,136.045364 142.293015,137.036530 
z"/>
<path fill="#181718" opacity="1.000000" stroke="none" 
	d="
M73.395844,53.659286 
	C73.256348,52.764198 73.349281,51.605930 73.654678,50.172844 
	C73.787506,51.064049 73.707893,52.230080 73.395844,53.659286 
z"/>
<path fill="#181718" opacity="1.000000" stroke="none" 
	d="
M72.225723,57.727989 
	C72.153206,57.125690 72.336983,56.326073 72.716476,55.293396 
	C72.768806,55.883781 72.625412,56.707230 72.225723,57.727989 
z"/>
<path fill="#6A5399" opacity="1.000000" stroke="none" 
	d="
M7.970499,64.311806 
	C8.917865,64.504112 9.060285,65.414238 9.117764,66.712883 
	C8.319539,66.454597 7.980265,65.628815 7.970499,64.311806 
z"/>
<path fill="#623CB1" opacity="1.000000" stroke="none" 
	d="
M132.739807,119.221054 
	C132.844345,119.883049 132.679276,120.739166 132.237381,121.785980 
	C132.130432,121.122849 132.300323,120.269012 132.739807,119.221054 
z"/>
<path fill="#181718" opacity="1.000000" stroke="none" 
	d="
M133.779861,45.599422 
	C133.513855,45.810925 133.096680,45.849606 132.368484,45.832237 
	C132.483475,45.220413 132.981232,44.987034 133.779861,45.599422 
z"/>
<path fill="#6139B1" opacity="1.000000" stroke="none" 
	d="
M113.325714,168.052704 
	C113.445450,167.685669 113.860970,167.316437 114.568649,166.938110 
	C114.447708,167.302841 114.034599,167.676697 113.325714,168.052704 
z"/>
<path fill="#181718" opacity="1.000000" stroke="none" 
	d="
M104.790405,47.103340 
	C104.587906,47.356255 104.114922,47.582420 103.372757,47.777946 
	C103.575684,47.523731 104.047806,47.300159 104.790405,47.103340 
z"/>
<path fill="#623CB1" opacity="1.000000" stroke="none" 
	d="
M93.295349,76.936035 
	C93.463837,76.589241 93.927757,76.270988 94.689117,75.982262 
	C94.521294,76.329384 94.056030,76.646973 93.295349,76.936035 
z"/>
<path fill="#623CB1" opacity="1.000000" stroke="none" 
	d="
M115.805794,148.272629 
	C115.865341,148.664917 115.662315,149.185333 115.195816,149.830292 
	C115.135971,149.436798 115.339600,148.918777 115.805794,148.272629 
z"/>
<path fill="#623CB1" opacity="1.000000" stroke="none" 
	d="
M133.717270,116.927307 
	C133.848373,117.365021 133.710266,117.995781 133.298508,118.809784 
	C133.165924,118.368813 133.306992,117.744591 133.717270,116.927307 
z"/>
<path fill="#623CB1" opacity="1.000000" stroke="none" 
	d="
M131.679993,122.112640 
	C131.809174,122.541618 131.661362,123.104721 131.254471,123.826004 
	C131.131271,123.405045 131.267151,122.825912 131.679993,122.112640 
z"/>
<path fill="#623CB1" opacity="1.000000" stroke="none" 
	d="
M57.366707,88.805038 
	C57.073502,88.783867 57.045406,88.343315 57.043449,88.121635 
	C57.512226,87.893440 57.982960,87.886925 58.806412,87.931763 
	C58.659393,88.264153 58.159657,88.545174 57.366707,88.805038 
z"/>
<path fill="#181718" opacity="1.000000" stroke="none" 
	d="
M160.896500,70.827866 
	C160.647598,70.621124 160.427567,70.145058 160.251022,69.403839 
	C160.504791,69.611969 160.715088,70.085258 160.896500,70.827866 
z"/>
<path fill="#623CB1" opacity="1.000000" stroke="none" 
	d="
M130.729019,124.159348 
	C130.838715,124.566414 130.691727,125.126328 130.287598,125.842545 
	C130.177750,125.436623 130.325043,124.874405 130.729019,124.159348 
z"/>
<path fill="#623CB1" opacity="1.000000" stroke="none" 
	d="
M127.715294,130.139252 
	C127.830734,130.563934 127.673233,131.124054 127.253525,131.834290 
	C127.141663,131.414474 127.292000,130.844589 127.715294,130.139252 
z"/>
<path fill="#6139B1" opacity="1.000000" stroke="none" 
	d="
M145.352386,131.940247 
	C145.188232,131.510010 145.312836,130.943985 145.650497,130.172791 
	C145.789413,130.579910 145.715286,131.192169 145.352386,131.940247 
z"/>
<path fill="#6139B1" opacity="1.000000" stroke="none" 
	d="
M139.179901,141.704071 
	C139.120743,141.319382 139.308380,140.795563 139.757767,140.146942 
	C139.821899,140.536423 139.624298,141.050674 139.179901,141.704071 
z"/>
<path fill="#623CB1" opacity="1.000000" stroke="none" 
	d="
M126.713455,132.140503 
	C126.811104,132.554840 126.639412,133.109055 126.205643,133.815643 
	C126.110420,133.405457 126.277267,132.842926 126.713455,132.140503 
z"/>
<path fill="#6139B1" opacity="1.000000" stroke="none" 
	d="
M144.261078,133.827881 
	C144.184570,133.417496 144.367462,132.862152 144.824707,132.170593 
	C144.906219,132.583878 144.713364,133.133408 144.261078,133.827881 
z"/>
<path fill="#623CB1" opacity="1.000000" stroke="none" 
	d="
M104.691238,160.000900 
	C104.785286,160.244614 104.609589,160.524139 104.190735,160.880127 
	C104.105545,160.649963 104.263519,160.343338 104.691238,160.000900 
z"/>
<path fill="#623CB1" opacity="1.000000" stroke="none" 
	d="
M92.145355,77.024612 
	C92.075821,76.884956 92.487206,76.832222 92.689499,76.878502 
	C92.891792,76.924782 92.619873,77.263245 92.619873,77.263245 
	C92.619873,77.263245 92.214882,77.164261 92.145355,77.024612 
z"/>
<path fill="#6139B1" opacity="1.000000" stroke="none" 
	d="
M122.250496,160.908386 
	C122.033585,160.597137 122.205116,160.326935 122.756653,160.085907 
	C122.831535,160.304825 122.665634,160.582947 122.250496,160.908386 
z"/>
<path fill="#6139B1" opacity="1.000000" stroke="none" 
	d="
M123.286911,159.958466 
	C123.069031,159.645218 123.241539,159.372635 123.783096,159.110367 
	C123.862938,159.330627 123.704651,159.623428 123.286911,159.958466 
z"/>
<path fill="#623CB1" opacity="1.000000" stroke="none" 
	d="
M103.666710,160.997101 
	C103.713799,161.246613 103.463860,161.543991 102.917023,161.902756 
	C102.869987,161.657745 103.119843,161.351364 103.666710,160.997101 
z"/>
<path fill="#6139B1" opacity="1.000000" stroke="none" 
	d="
M121.224686,161.860046 
	C121.008308,161.552628 121.175362,161.289337 121.718948,161.056564 
	C121.935760,161.355713 121.773308,161.628067 121.224686,161.860046 
z"/>
<path fill="#623CB1" opacity="1.000000" stroke="none" 
	d="
M101.974831,162.219727 
	C102.008087,162.432816 101.781403,162.676666 101.307877,162.967712 
	C101.278992,162.760086 101.496941,162.505280 101.974831,162.219727 
z"/>
<path fill="#623CB1" opacity="1.000000" stroke="none" 
	d="
M100.745232,163.087280 
	C100.821198,163.321838 100.637871,163.588516 100.210220,163.911499 
	C100.139244,163.684998 100.312592,163.402191 100.745232,163.087280 
z"/>
<path fill="#623CB1" opacity="1.000000" stroke="none" 
	d="
M99.677368,164.009094 
	C99.718231,164.254990 99.461296,164.545319 98.906982,164.894440 
	C98.866264,164.653351 99.122925,164.353455 99.677368,164.009094 
z"/>
<path fill="#623CB1" opacity="1.000000" stroke="none" 
	d="
M97.950180,165.136703 
	C97.992493,165.380188 97.748306,165.628738 97.246918,165.931671 
	C97.214363,165.704636 97.439026,165.423203 97.950180,165.136703 
z"/>
<path fill="#6139B1" opacity="1.000000" stroke="none" 
	d="
M116.253906,165.914825 
	C116.055038,165.599457 116.241531,165.338623 116.794510,165.106064 
	C116.860313,165.322037 116.686401,165.600372 116.253906,165.914825 
z"/>
<path fill="#6139B1" opacity="1.000000" stroke="none" 
	d="
M115.205421,166.817017 
	C115.010963,166.516296 115.183846,166.263199 115.716400,166.042664 
	C115.917709,166.338547 115.749939,166.601685 115.205421,166.817017 
z"/>
<path fill="#6139B1" opacity="1.000000" stroke="none" 
	d="
M112.263794,168.928619 
	C112.192162,168.705795 112.377800,168.438370 112.805565,168.104675 
	C112.872147,168.320282 112.696602,168.602142 112.263794,168.928619 
z"/>
<path fill="#6139B1" opacity="1.000000" stroke="none" 
	d="
M108.065048,171.778427 
	C107.944893,171.460480 108.171562,171.231842 108.718506,171.038574 
	C108.749207,171.258591 108.540237,171.523193 108.065048,171.778427 
z"/>
<path fill="#6139B1" opacity="1.000000" stroke="none" 
	d="
M62.166702,172.198029 
	C62.441872,172.001465 62.702301,172.161362 62.961861,172.667465 
	C62.682934,172.885406 62.413258,172.732346 62.166702,172.198029 
z"/>
<path fill="#6139B1" opacity="1.000000" stroke="none" 
	d="
M63.167938,173.196442 
	C63.443291,173.000549 63.702003,173.160492 63.959694,173.664871 
	C63.680737,173.883804 63.411613,173.731461 63.167938,173.196442 
z"/>
<path fill="#623CB1" opacity="1.000000" stroke="none" 
	d="
M114.672279,149.972565 
	C114.779350,150.224747 114.612923,150.509155 114.207825,150.880371 
	C114.112358,150.646378 114.255569,150.325592 114.672279,149.972565 
z"/>
<path fill="#623CB1" opacity="1.000000" stroke="none" 
	d="
M123.752274,137.125580 
	C123.869644,137.328537 123.733887,137.631668 123.385574,138.082001 
	C123.281723,137.894714 123.390434,137.560226 123.752274,137.125580 
z"/>
<path fill="#6139B1" opacity="1.000000" stroke="none" 
	d="
M141.192230,138.804443 
	C140.952652,138.578156 141.062241,138.298767 141.496155,137.940796 
	C141.780640,138.165268 141.687607,138.461639 141.192230,138.804443 
z"/>
<path fill="#6139B1" opacity="1.000000" stroke="none" 
	d="
M140.278427,139.959442 
	C140.038635,139.664841 140.185699,139.383743 140.693985,139.082794 
	C140.791336,139.296188 140.661346,139.599518 140.278427,139.959442 
z"/>
<path fill="#623CB1" opacity="1.000000" stroke="none" 
	d="
M120.697357,142.011719 
	C120.949753,142.317322 120.804611,142.606628 120.285088,142.912170 
	C120.180634,142.687805 120.310341,142.376801 120.697357,142.011719 
z"/>
<path fill="#6139B1" opacity="1.000000" stroke="none" 
	d="
M138.213379,142.868439 
	C137.990036,142.599915 138.130096,142.330292 138.628082,142.055481 
	C138.873489,142.332077 138.737076,142.604431 138.213379,142.868439 
z"/>
<path fill="#623CB1" opacity="1.000000" stroke="none" 
	d="
M119.769394,143.152222 
	C120.024483,143.406677 119.899269,143.696320 119.427811,144.061417 
	C119.325104,143.881256 119.427612,143.564758 119.769394,143.152222 
z"/>
<path fill="#6139B1" opacity="1.000000" stroke="none" 
	d="
M137.292419,143.971527 
	C137.051270,143.675018 137.197739,143.389023 137.711914,143.083313 
	C137.809540,143.299637 137.676346,143.605789 137.292419,143.971527 
z"/>
<path fill="#181718" opacity="1.000000" stroke="none" 
	d="
M161.863342,75.127930 
	C161.885925,75.376381 161.456558,75.153076 161.234344,75.056953 
	C161.012146,74.960831 161.088654,74.505173 161.186005,74.296539 
	C161.572693,74.278709 161.758499,74.542572 161.863342,75.127930 
z"/>
<path fill="#623CB1" opacity="1.000000" stroke="none" 
	d="
M118.698837,144.816910 
	C118.805107,145.032150 118.646355,145.375443 118.229317,145.847961 
	C118.125290,145.633118 118.279556,145.289032 118.698837,144.816910 
z"/>
<path fill="#623CB1" opacity="1.000000" stroke="none" 
	d="
M117.718559,146.032303 
	C117.823769,146.261246 117.676140,146.550110 117.290939,146.919189 
	C117.190811,146.697006 117.328262,146.394608 117.718559,146.032303 
z"/>
<path fill="#623CB1" opacity="1.000000" stroke="none" 
	d="
M116.780014,147.131363 
	C117.019508,147.406784 116.882614,147.680557 116.371475,147.953812 
	C116.124413,147.675705 116.259880,147.401169 116.780014,147.131363 
z"/>
<path fill="#6139B1" opacity="1.000000" stroke="none" 
	d="
M133.303986,148.982483 
	C133.061462,148.670853 133.217728,148.388397 133.748718,148.099548 
	C133.843399,148.321960 133.703186,148.628128 133.303986,148.982483 
z"/>
<path fill="#623CB1" opacity="1.000000" stroke="none" 
	d="
M105.714310,159.031631 
	C105.802505,159.267273 105.627747,159.543747 105.209991,159.890121 
	C105.128448,159.664169 105.289894,159.368317 105.714310,159.031631 
z"/>
<path fill="#623CB1" opacity="1.000000" stroke="none" 
	d="
M113.707397,151.025940 
	C113.805107,151.256943 113.645081,151.542053 113.243996,151.902649 
	C113.151848,151.678757 113.300758,151.379410 113.707397,151.025940 
z"/>
<path fill="#623CB1" opacity="1.000000" stroke="none" 
	d="
M112.725258,152.056274 
	C112.818214,152.285843 112.657585,152.567322 112.254791,152.916870 
	C112.165649,152.692703 112.318665,152.400452 112.725258,152.056274 
z"/>
<path fill="#623CB1" opacity="1.000000" stroke="none" 
	d="
M111.731155,153.061646 
	C111.973778,153.375992 111.814972,153.655579 111.269348,153.921448 
	C111.179047,153.697876 111.328110,153.404266 111.731155,153.061646 
z"/>
<path fill="#6139B1" opacity="1.000000" stroke="none" 
	d="
M129.182892,153.796829 
	C128.981110,153.541260 129.119522,153.289185 129.585907,153.027130 
	C129.820633,153.290680 129.690384,153.551727 129.182892,153.796829 
z"/>
<path fill="#623CB1" opacity="1.000000" stroke="none" 
	d="
M110.761108,154.104279 
	C111.004799,154.388428 110.864395,154.668350 110.343140,154.948318 
	C110.097801,154.666183 110.236046,154.383423 110.761108,154.104279 
z"/>
<path fill="#6139B1" opacity="1.000000" stroke="none" 
	d="
M128.234131,154.884964 
	C127.992683,154.606476 128.130051,154.331146 128.640839,154.050323 
	C128.874588,154.319687 128.740829,154.600784 128.234131,154.884964 
z"/>
<path fill="#623CB1" opacity="1.000000" stroke="none" 
	d="
M109.810883,155.188309 
	C110.024506,155.453476 109.883270,155.713165 109.390976,155.972382 
	C109.174698,155.709045 109.313393,155.446014 109.810883,155.188309 
z"/>
<path fill="#6139B1" opacity="1.000000" stroke="none" 
	d="
M127.292755,155.966034 
	C127.050323,155.656876 127.204048,155.376984 127.729462,155.092239 
	C127.825058,155.313828 127.687645,155.616470 127.292755,155.966034 
z"/>
<path fill="#623CB1" opacity="1.000000" stroke="none" 
	d="
M108.824036,156.228088 
	C109.016106,156.499039 108.862076,156.747131 108.366913,156.979721 
	C108.166695,156.708481 108.317406,156.455475 108.824036,156.228088 
z"/>
<path fill="#6139B1" opacity="1.000000" stroke="none" 
	d="
M126.295303,156.971619 
	C126.200691,156.735535 126.366386,156.456619 126.772797,156.106262 
	C126.860870,156.332809 126.708237,156.630783 126.295303,156.971619 
z"/>
<path fill="#623CB1" opacity="1.000000" stroke="none" 
	d="
M107.795761,157.186646 
	C107.993561,157.489044 107.818306,157.744034 107.271965,157.951996 
	C107.055298,157.637161 107.229248,157.381912 107.795761,157.186646 
z"/>
<path fill="#6139B1" opacity="1.000000" stroke="none" 
	d="
M125.298752,157.975143 
	C125.203659,157.740509 125.368279,157.460281 125.773727,157.107437 
	C125.862518,157.333069 125.710495,157.631317 125.298752,157.975143 
z"/>
<path fill="#623CB1" opacity="1.000000" stroke="none" 
	d="
M106.738129,158.073578 
	C106.821556,158.305969 106.649673,158.579330 106.235237,158.914978 
	C106.156059,158.689697 106.319443,158.402130 106.738129,158.073578 
z"/>
<path fill="#6139B1" opacity="1.000000" stroke="none" 
	d="
M124.298790,158.975189 
	C124.205879,158.743134 124.374062,158.465103 124.782120,158.112976 
	C124.867950,158.335678 124.713921,158.632446 124.298790,158.975189 
z"/>
<path fill="#653FAF" opacity="1.000000" stroke="none" 
	d="
M25.548267,44.071243 
	C25.575544,47.661629 24.388802,51.512840 25.911142,55.762993 
	C22.847702,52.379433 23.488813,48.380589 25.548267,44.071243 
z"/>
<path fill="#653FAF" opacity="1.000000" stroke="none" 
	d="
M27.492979,38.877602 
	C27.398951,40.056370 26.966642,41.393322 26.250851,42.945511 
	C25.913195,41.656242 25.669041,40.097057 27.492979,38.877602 
z"/>
<path fill="#653FAF" opacity="1.000000" stroke="none" 
	d="
M29.041969,36.164581 
	C29.104708,36.641106 28.832760,37.253036 28.279110,38.056992 
	C28.234032,37.599335 28.470655,36.949665 29.041969,36.164581 
z"/>
<path fill="#653FAF" opacity="1.000000" stroke="none" 
	d="
M26.063297,56.981018 
	C26.304276,56.978630 26.585648,57.282532 26.869709,57.910442 
	C26.616163,57.918736 26.359926,57.603020 26.063297,56.981018 
z"/>
<path fill="#181717" opacity="1.000000" stroke="none" 
	d="
M915.971313,55.085396 
	C915.373657,51.107403 916.404175,49.308502 920.362915,49.949223 
	C922.300720,50.262852 924.333557,49.936172 926.317078,50.030952 
	C931.164246,50.262562 933.671692,52.788548 933.802979,57.460152 
	C933.928955,61.943333 931.315918,64.612633 926.423828,64.996582 
	C926.258850,65.009544 926.092651,65.007256 925.927246,65.016182 
	C915.971313,65.552956 915.971313,65.552986 915.971313,55.085396 
z"/>
<path fill="#181717" opacity="1.000000" stroke="none" 
	d="
M926.988037,42.498055 
	C915.728149,43.788490 913.533752,41.310593 915.985352,30.660425 
	C916.090942,30.201777 916.226746,29.397839 916.436523,29.367670 
	C920.366638,28.802551 924.331055,28.388117 928.134277,29.939985 
	C930.970093,31.097147 931.965393,33.538784 931.846741,36.397026 
	C931.725281,39.323082 930.265137,41.410564 926.988037,42.498055 
z"/>
<path fill="#171616" opacity="1.000000" stroke="none" 
	d="
M643.796631,57.952820 
	C643.796692,49.157326 643.901184,40.855499 643.737427,32.558964 
	C643.683533,29.831089 644.345825,28.920536 647.251221,28.894682 
	C657.555298,28.802990 661.943176,32.791695 662.123840,43.023186 
	C662.185364,46.506569 662.251892,50.006542 661.997375,53.475555 
	C661.358704,62.182800 653.441406,67.700020 645.286560,64.904060 
	C642.152832,63.829620 644.481995,60.586475 643.796631,57.952820 
z"/>
<path fill="#1A1919" opacity="1.000000" stroke="none" 
	d="
M550.729858,117.049759 
	C556.556458,123.300751 557.792419,139.720520 553.239807,146.310654 
	C550.465881,150.326080 542.985413,152.602249 538.395630,151.025040 
	C536.734375,150.454147 537.133972,149.293076 537.130737,148.243088 
	C537.099365,138.104584 537.160645,127.965492 537.071777,117.827652 
	C537.053406,115.729599 537.577820,114.797783 539.834778,114.922455 
	C543.451050,115.122238 547.192383,114.461510 550.729858,117.049759 
z"/>
<path fill="#191818" opacity="1.000000" stroke="none" 
	d="
M430.018188,41.520401 
	C430.949463,36.779316 432.191711,32.630440 436.172852,30.099119 
	C441.769348,26.540693 449.825500,28.667753 452.846588,34.725578 
	C456.529907,42.111290 456.302582,49.879864 453.741455,57.506485 
	C451.891479,63.015465 447.802948,65.624023 442.404022,65.576164 
	C437.050415,65.528702 433.261536,62.752426 431.223145,57.245728 
	C429.384979,52.280029 429.627319,47.118633 430.018188,41.520401 
z"/>
<path fill="#191818" opacity="1.000000" stroke="none" 
	d="
M844.459106,145.236557 
	C841.785950,150.338654 837.643921,151.870331 832.591125,151.448547 
	C827.264099,151.003860 824.257202,147.718933 822.676025,142.904800 
	C820.419678,136.035080 820.455994,129.163666 822.907959,122.343452 
	C824.743835,117.236771 828.393433,114.493439 833.835632,114.454720 
	C839.240540,114.416252 843.074768,117.002853 845.019409,122.049065 
	C847.964172,129.690338 847.791382,137.341110 844.459106,145.236557 
z"/>
<path fill="#191818" opacity="1.000000" stroke="none" 
	d="
M280.124939,134.758530 
	C279.964172,130.293015 280.444305,126.372910 281.819061,122.553917 
	C283.651367,117.463776 287.148956,114.647957 292.591339,114.440514 
	C298.024139,114.233444 301.924133,116.775002 304.086548,122.279076 
	C306.873932,129.373901 306.842346,136.609055 304.117432,143.712524 
	C302.006866,149.214447 298.091461,151.781372 292.653748,151.568756 
	C287.215942,151.356110 283.709747,148.534882 281.859406,143.461929 
	C280.881042,140.779541 280.365875,138.025574 280.124939,134.758530 
z"/>
<path fill="#1F1E1E" opacity="1.000000" stroke="none" 
	d="
M620.300598,137.050781 
	C618.400146,137.160492 617.596619,136.638779 618.095337,135.077087 
	C619.740173,129.925812 621.421509,124.786163 623.393127,118.702942 
	C625.476746,125.223839 627.250793,130.775955 629.256165,137.051895 
	C626.155273,137.051895 623.453369,137.051895 620.300598,137.050781 
z"/>
<path fill="#5E1BE4" opacity="1.000000" stroke="none" 
	d="
M56.029709,146.863953 
	C55.181324,147.007187 54.325527,146.732956 54.018509,145.392151 
	C54.092922,144.208038 54.310764,143.403946 55.601990,143.067520 
	C55.952248,144.149689 55.994663,145.289017 56.029709,146.863953 
z"/>
<path fill="#5E1BE4" opacity="1.000000" stroke="none" 
	d="
M56.177891,148.892792 
	C55.978832,148.781067 55.963226,148.547974 55.972347,147.960724 
	C56.118504,147.994843 56.239925,148.383133 56.177891,148.892792 
z"/>
</svg>